<mxfile host="app.diagrams.net" agent="Mozilla/5.0 (Windows NT 10.0; Win64; x64) AppleWebKit/537.36 (KHTML, like Gecko) Chrome/137.0.0.0 Safari/537.36" version="27.1.1">
  <diagram name="ページ1" id="f6tFQ64QTpeIHVYmQmMS">
    <mxGraphModel grid="1" page="1" gridSize="10" guides="1" tooltips="1" connect="1" arrows="1" fold="1" pageScale="1" pageWidth="827" pageHeight="1169" background="#FFFFFF" math="0" shadow="0">
      <root>
        <mxCell id="0" />
        <mxCell id="1" parent="0" />
        <mxCell id="grRCgsBjdt6_XXE6SY-G-8" value="" style="rounded=0;whiteSpace=wrap;html=1;" vertex="1" parent="1">
          <mxGeometry x="40" y="310" width="460" height="320" as="geometry" />
        </mxCell>
        <mxCell id="qGGfUsG8ycWiL8G0Mho2-11" value="" style="rounded=0;whiteSpace=wrap;html=1;" vertex="1" parent="1">
          <mxGeometry x="318" y="350" width="112" height="140" as="geometry" />
        </mxCell>
        <mxCell id="grRCgsBjdt6_XXE6SY-G-4" value="EC2 インスタンス" style="text;html=1;align=center;verticalAlign=middle;whiteSpace=wrap;rounded=0;" vertex="1" parent="1">
          <mxGeometry x="54" y="424" width="130" height="30" as="geometry" />
        </mxCell>
        <mxCell id="grRCgsBjdt6_XXE6SY-G-7" value="" style="sketch=0;points=[[0,0,0],[0.25,0,0],[0.5,0,0],[0.75,0,0],[1,0,0],[0,1,0],[0.25,1,0],[0.5,1,0],[0.75,1,0],[1,1,0],[0,0.25,0],[0,0.5,0],[0,0.75,0],[1,0.25,0],[1,0.5,0],[1,0.75,0]];outlineConnect=0;fontColor=#232F3E;fillColor=#ED7100;strokeColor=#ffffff;dashed=0;verticalLabelPosition=bottom;verticalAlign=top;align=center;html=1;fontSize=12;fontStyle=0;aspect=fixed;shape=mxgraph.aws4.resourceIcon;resIcon=mxgraph.aws4.ec2;" vertex="1" parent="1">
          <mxGeometry x="76" y="340" width="78" height="78" as="geometry" />
        </mxCell>
        <mxCell id="grRCgsBjdt6_XXE6SY-G-9" value="" style="sketch=0;points=[[0,0,0],[0.25,0,0],[0.5,0,0],[0.75,0,0],[1,0,0],[0,1,0],[0.25,1,0],[0.5,1,0],[0.75,1,0],[1,1,0],[0,0.25,0],[0,0.5,0],[0,0.75,0],[1,0.25,0],[1,0.5,0],[1,0.75,0]];points=[[0,0,0],[0.25,0,0],[0.5,0,0],[0.75,0,0],[1,0,0],[0,1,0],[0.25,1,0],[0.5,1,0],[0.75,1,0],[1,1,0],[0,0.25,0],[0,0.5,0],[0,0.75,0],[1,0.25,0],[1,0.5,0],[1,0.75,0]];outlineConnect=0;fontColor=#232F3E;fillColor=#E7157B;strokeColor=#ffffff;dashed=0;verticalLabelPosition=bottom;verticalAlign=top;align=center;html=1;fontSize=12;fontStyle=0;aspect=fixed;shape=mxgraph.aws4.resourceIcon;resIcon=mxgraph.aws4.cloudwatch_2;" vertex="1" parent="1">
          <mxGeometry x="180.5" y="140" width="78" height="78" as="geometry" />
        </mxCell>
        <mxCell id="grRCgsBjdt6_XXE6SY-G-10" value="CloudWatch Logs" style="text;html=1;align=center;verticalAlign=middle;whiteSpace=wrap;rounded=0;" vertex="1" parent="1">
          <mxGeometry x="169" y="230" width="101" height="30" as="geometry" />
        </mxCell>
        <mxCell id="qGGfUsG8ycWiL8G0Mho2-1" value="" style="shape=image;imageAspect=0;aspect=fixed;verticalLabelPosition=bottom;verticalAlign=top;image=https://scontent-nrt1-2.xx.fbcdn.net/v/t39.30808-6/304778810_504599341670847_1168357061434201929_n.png?_nc_cat=102&amp;ccb=1-7&amp;_nc_sid=6ee11a&amp;_nc_ohc=34apQ0M1di0Q7kNvwGB-Igr&amp;_nc_oc=Adl8ywwBV1PFjmUsnzQj1sX1IGfeUElMIZ-mOT9rX7CfCOhYzib1-h5_cv8wlB3z7zmWRt42PoCdaQnGjuWDkeWi&amp;_nc_zt=23&amp;_nc_ht=scontent-nrt1-2.xx&amp;_nc_gid=1kpIWVIfxPagymm5KtmAmA&amp;oh=00_AfJYcQzEiVK8JMLQmGPvQpKh8Zz22YH6Kd6VV1aSiP5vMQ&amp;oe=68409AE8;" vertex="1" parent="1">
          <mxGeometry x="346" y="360" width="64" height="64" as="geometry" />
        </mxCell>
        <mxCell id="grRCgsBjdt6_XXE6SY-G-14" value="Factorioサーバー" style="text;html=1;align=center;verticalAlign=middle;whiteSpace=wrap;rounded=0;" vertex="1" parent="1">
          <mxGeometry x="319" y="405" width="106" height="30" as="geometry" />
        </mxCell>
        <mxCell id="qGGfUsG8ycWiL8G0Mho2-2" value="systemd" style="rounded=0;whiteSpace=wrap;html=1;" vertex="1" parent="1">
          <mxGeometry x="360" y="320" width="120" height="20" as="geometry" />
        </mxCell>
        <mxCell id="qGGfUsG8ycWiL8G0Mho2-3" value="" style="endArrow=none;html=1;rounded=0;entryX=0.75;entryY=1;entryDx=0;entryDy=0;exitX=1;exitY=0.25;exitDx=0;exitDy=0;" edge="1" parent="1" source="qGGfUsG8ycWiL8G0Mho2-11" target="qGGfUsG8ycWiL8G0Mho2-2">
          <mxGeometry width="50" height="50" relative="1" as="geometry">
            <mxPoint x="550" y="420" as="sourcePoint" />
            <mxPoint x="600" y="370" as="targetPoint" />
            <Array as="points">
              <mxPoint x="450" y="385" />
            </Array>
          </mxGeometry>
        </mxCell>
        <mxCell id="qGGfUsG8ycWiL8G0Mho2-4" value="標準出力" style="shape=tape;whiteSpace=wrap;html=1;strokeWidth=2;size=0.19" vertex="1" parent="1">
          <mxGeometry x="339.5" y="475" width="65" height="25" as="geometry" />
        </mxCell>
        <mxCell id="qGGfUsG8ycWiL8G0Mho2-5" value="" style="html=1;shadow=0;dashed=0;align=center;verticalAlign=middle;shape=mxgraph.arrows2.arrow;dy=0.65;dx=17.82;direction=south;notch=0;fillColor=#FFD966;" vertex="1" parent="1">
          <mxGeometry x="362" y="431" width="20" height="40" as="geometry" />
        </mxCell>
        <mxCell id="qGGfUsG8ycWiL8G0Mho2-6" value="" style="html=1;shadow=0;dashed=0;align=center;verticalAlign=middle;shape=mxgraph.arrows2.arrow;dy=0.65;dx=17.82;direction=south;notch=0;fillColor=#7EA6E0;rotation=-90;" vertex="1" parent="1">
          <mxGeometry x="620" width="20" height="100" as="geometry" />
        </mxCell>
        <mxCell id="qGGfUsG8ycWiL8G0Mho2-7" value="処理の流れ" style="text;html=1;align=center;verticalAlign=middle;whiteSpace=wrap;rounded=0;fontSize=17;fontStyle=1;fontColor=#526B91;" vertex="1" parent="1">
          <mxGeometry x="685" y="35" width="105" height="30" as="geometry" />
        </mxCell>
        <mxCell id="qGGfUsG8ycWiL8G0Mho2-8" value="" style="shape=note;whiteSpace=wrap;html=1;backgroundOutline=1;darkOpacity=0.05;size=13;" vertex="1" parent="1">
          <mxGeometry x="357" y="546" width="30" height="40" as="geometry" />
        </mxCell>
        <mxCell id="qGGfUsG8ycWiL8G0Mho2-9" value="ファイル" style="text;html=1;align=center;verticalAlign=middle;whiteSpace=wrap;rounded=0;" vertex="1" parent="1">
          <mxGeometry x="342" y="583" width="60" height="30" as="geometry" />
        </mxCell>
        <mxCell id="qGGfUsG8ycWiL8G0Mho2-10" value="" style="html=1;shadow=0;dashed=0;align=center;verticalAlign=middle;shape=mxgraph.arrows2.arrow;dy=0.65;dx=17.82;direction=south;notch=0;fillColor=#FFD966;" vertex="1" parent="1">
          <mxGeometry x="362" y="503" width="20" height="40" as="geometry" />
        </mxCell>
        <mxCell id="grRCgsBjdt6_XXE6SY-G-11" value="CloudWatch Agent" style="sketch=0;outlineConnect=0;fontColor=#232F3E;gradientColor=none;strokeColor=#232F3E;fillColor=#ffffff;dashed=0;verticalLabelPosition=bottom;verticalAlign=top;align=center;html=1;fontSize=12;fontStyle=0;aspect=fixed;shape=mxgraph.aws4.resourceIcon;resIcon=mxgraph.aws4.instance_with_cloudwatch;labelBackgroundColor=default;" vertex="1" parent="1">
          <mxGeometry x="198.5" y="536" width="60" height="60" as="geometry" />
        </mxCell>
        <mxCell id="qGGfUsG8ycWiL8G0Mho2-16" value="" style="sketch=0;points=[[0,0,0],[0.25,0,0],[0.5,0,0],[0.75,0,0],[1,0,0],[0,1,0],[0.25,1,0],[0.5,1,0],[0.75,1,0],[1,1,0],[0,0.25,0],[0,0.5,0],[0,0.75,0],[1,0.25,0],[1,0.5,0],[1,0.75,0]];outlineConnect=0;fontColor=#232F3E;fillColor=#ED7100;strokeColor=#ffffff;dashed=0;verticalLabelPosition=bottom;verticalAlign=top;align=center;html=1;fontSize=12;fontStyle=0;aspect=fixed;shape=mxgraph.aws4.resourceIcon;resIcon=mxgraph.aws4.lambda;" vertex="1" parent="1">
          <mxGeometry x="404.5" y="140" width="78" height="78" as="geometry" />
        </mxCell>
        <mxCell id="qGGfUsG8ycWiL8G0Mho2-17" value="Lambda" style="text;html=1;align=center;verticalAlign=middle;whiteSpace=wrap;rounded=0;" vertex="1" parent="1">
          <mxGeometry x="393" y="230" width="101" height="30" as="geometry" />
        </mxCell>
        <mxCell id="qGGfUsG8ycWiL8G0Mho2-18" value="" style="html=1;shadow=0;dashed=0;align=center;verticalAlign=middle;shape=mxgraph.arrows2.jumpInArrow;dy=3.28;dx=29;arrowHead=22.71;rotation=105;fillColor=#7EA6E0;" vertex="1" parent="1">
          <mxGeometry x="357" y="528" width="77.5" height="15" as="geometry" />
        </mxCell>
        <mxCell id="qGGfUsG8ycWiL8G0Mho2-20" value="" style="html=1;shadow=0;dashed=0;align=center;verticalAlign=middle;shape=mxgraph.arrows2.arrow;dy=0.6;dx=22;notch=0;fillColor=#7EA6E0;" vertex="1" parent="1">
          <mxGeometry x="260" y="565" width="86" height="20" as="geometry" />
        </mxCell>
        <mxCell id="qGGfUsG8ycWiL8G0Mho2-21" value="監視" style="text;html=1;align=center;verticalAlign=middle;whiteSpace=wrap;rounded=0;fontColor=#526B91;" vertex="1" parent="1">
          <mxGeometry x="259.5" y="573" width="80" height="30" as="geometry" />
        </mxCell>
        <mxCell id="qGGfUsG8ycWiL8G0Mho2-13" value="systemd" style="ellipse;whiteSpace=wrap;html=1;" vertex="1" parent="1">
          <mxGeometry x="400.5" y="503" width="82" height="29" as="geometry" />
        </mxCell>
        <mxCell id="qGGfUsG8ycWiL8G0Mho2-19" value="出力" style="text;html=1;align=center;verticalAlign=middle;whiteSpace=wrap;rounded=0;fontColor=#526B91;labelBackgroundColor=default;" vertex="1" parent="1">
          <mxGeometry x="402" y="528" width="28" height="30" as="geometry" />
        </mxCell>
        <mxCell id="qGGfUsG8ycWiL8G0Mho2-22" value="" style="html=1;shadow=0;dashed=0;align=center;verticalAlign=middle;shape=mxgraph.arrows2.arrow;dy=0.6;dx=22;notch=0;fillColor=#7EA6E0;rotation=-90;" vertex="1" parent="1">
          <mxGeometry x="75" y="394" width="264.5" height="15" as="geometry" />
        </mxCell>
        <mxCell id="qGGfUsG8ycWiL8G0Mho2-23" value="送信" style="text;html=1;align=center;verticalAlign=middle;whiteSpace=wrap;rounded=0;fontColor=#526B91;" vertex="1" parent="1">
          <mxGeometry x="188.5" y="409" width="80" height="30" as="geometry" />
        </mxCell>
        <mxCell id="qGGfUsG8ycWiL8G0Mho2-14" value="" style="html=1;shadow=0;dashed=0;align=center;verticalAlign=middle;shape=mxgraph.arrows2.arrow;dy=0.65;dx=17.82;direction=south;notch=0;fillColor=#FFD966;rotation=160;" vertex="1" parent="1">
          <mxGeometry x="280" y="258.5" width="20" height="323" as="geometry" />
        </mxCell>
        <mxCell id="qGGfUsG8ycWiL8G0Mho2-24" value="" style="html=1;shadow=0;dashed=0;align=center;verticalAlign=middle;shape=mxgraph.arrows2.arrow;dy=0.65;dx=17.82;direction=south;notch=0;fillColor=#FFD966;rotation=-90;" vertex="1" parent="1">
          <mxGeometry x="620" y="40" width="20" height="100" as="geometry" />
        </mxCell>
        <mxCell id="qGGfUsG8ycWiL8G0Mho2-25" value="データの流れ" style="text;html=1;align=center;verticalAlign=middle;whiteSpace=wrap;rounded=0;fontSize=17;fontStyle=1;fontColor=#AB9345;" vertex="1" parent="1">
          <mxGeometry x="685" y="75" width="105" height="30" as="geometry" />
        </mxCell>
        <mxCell id="qGGfUsG8ycWiL8G0Mho2-26" value="" style="html=1;shadow=0;dashed=0;align=center;verticalAlign=middle;shape=mxgraph.arrows2.arrow;dy=0.6;dx=22;notch=0;fillColor=#7EA6E0;rotation=0;" vertex="1" parent="1">
          <mxGeometry x="270" y="150" width="121.5" height="15" as="geometry" />
        </mxCell>
        <mxCell id="qGGfUsG8ycWiL8G0Mho2-27" value="呼び出し" style="text;html=1;align=center;verticalAlign=middle;whiteSpace=wrap;rounded=0;fontColor=#526B91;" vertex="1" parent="1">
          <mxGeometry x="290.75" y="160" width="80" height="30" as="geometry" />
        </mxCell>
        <mxCell id="qGGfUsG8ycWiL8G0Mho2-28" value="" style="html=1;shadow=0;dashed=0;align=center;verticalAlign=middle;shape=mxgraph.arrows2.arrow;dy=0.6;dx=22;notch=0;fillColor=#FFD966;rotation=0;" vertex="1" parent="1">
          <mxGeometry x="271.5" y="200" width="121.5" height="15" as="geometry" />
        </mxCell>
        <mxCell id="qGGfUsG8ycWiL8G0Mho2-30" value="" style="html=1;shadow=0;dashed=0;align=center;verticalAlign=middle;shape=mxgraph.arrows2.arrow;dy=0.6;dx=22;notch=0;fillColor=#7EA6E0;rotation=0;" vertex="1" parent="1">
          <mxGeometry x="494" y="150" width="121.5" height="15" as="geometry" />
        </mxCell>
        <mxCell id="qGGfUsG8ycWiL8G0Mho2-31" value="webhook" style="text;html=1;align=center;verticalAlign=middle;whiteSpace=wrap;rounded=0;fontColor=#526B91;" vertex="1" parent="1">
          <mxGeometry x="514.75" y="160" width="80" height="30" as="geometry" />
        </mxCell>
        <mxCell id="qGGfUsG8ycWiL8G0Mho2-32" value="" style="html=1;shadow=0;dashed=0;align=center;verticalAlign=middle;shape=mxgraph.arrows2.arrow;dy=0.6;dx=22;notch=0;fillColor=#FFD966;rotation=0;" vertex="1" parent="1">
          <mxGeometry x="495.5" y="200" width="121.5" height="15" as="geometry" />
        </mxCell>
        <mxCell id="qGGfUsG8ycWiL8G0Mho2-33" value="&lt;font style=&quot;color: rgb(171, 147, 69);&quot;&gt;ログメッセージ&lt;/font&gt;" style="text;html=1;align=center;verticalAlign=middle;whiteSpace=wrap;rounded=0;fontColor=#526B91;labelBackgroundColor=default;" vertex="1" parent="1">
          <mxGeometry x="385" y="435" width="95" height="30" as="geometry" />
        </mxCell>
        <mxCell id="qGGfUsG8ycWiL8G0Mho2-34" value="&lt;font style=&quot;color: rgb(171, 147, 69);&quot;&gt;ログインメッセージ&lt;/font&gt;" style="text;html=1;align=center;verticalAlign=middle;whiteSpace=wrap;rounded=0;fontColor=#526B91;labelBackgroundColor=default;" vertex="1" parent="1">
          <mxGeometry x="271.5" y="211" width="116.75" height="30" as="geometry" />
        </mxCell>
        <mxCell id="qGGfUsG8ycWiL8G0Mho2-35" value="&lt;font style=&quot;color: rgb(171, 147, 69);&quot;&gt;通知用テキスト&lt;/font&gt;" style="text;html=1;align=center;verticalAlign=middle;whiteSpace=wrap;rounded=0;fontColor=#526B91;labelBackgroundColor=default;" vertex="1" parent="1">
          <mxGeometry x="495.5" y="210" width="116.75" height="30" as="geometry" />
        </mxCell>
        <mxCell id="1JnCwZFcJpIxbQgqv27d-1" value="" style="shape=image;imageAspect=0;aspect=fixed;verticalLabelPosition=bottom;verticalAlign=top;image=data:image/png,iVBORw0KGgoAAAANSUhEUgAAAhAAAAGQCAYAAAGIX2laAAAACXBIWXMAAC4jAAAuIwF4pT92AAAgAElEQVR4nO3dTXbUSNbG8cc+PdYLK2izgoYVkF5BwUwzzEDjghUAK4Aaa4CZaYZrBWStwO4VkL2CytYG+h0o0sjpVKY+IhQRiv/vnDoUYCsv6cirq/iUHMqLeuXy+jad2bxYXtT/O/TnVZlNfp2Oa99UZfZ66rUl6R9TL9D1j5/Jq/brT3nDR33jmH98O8i8qC8kfZW0OvCln6oy+2jz9foY9MWef/qj9H1Der8RMb4JO33ejPM+F4r5TZCkvKj/PvU1vd6IBXhy6gtONpnYW0PbsY/I0RaRF/UP++GE6dRHYzVHEHM51ro734glfST6SCVZ3uv6AR98I/rcbpamq0WcvN3E7FCrePRG5EW96Dehy6EWkcTHYr9VJJcsuzx4I1K7ZbYl3SLaP/ik34i2+666vKh/2rroXm+UtY/b7rrmzmY1qVsN+NjT3ZTru7pu+/rWPhqneoHGdqy6uu4+K2/EgGCeObruesh1DzmXpLyov069UB9VmW0cXfdy6jV2LeJq6oVilhf1rY2PxtrCNQ6Z/FMe4LmNN2Jl4RqHzPrwF3JB9X3OFwv5jZiVlTciL+qPPb/OyUOdjeuemwHZqT5YuMYjcz4Nn8vSrfNY0HlRX4z9R5247mdbb9aZw3f9k9y0FCfXdflGRIW7hsEbYZzLXYkclXNJf/kOIgS7rq/kE+bkHFGV2ZmtXiKfMUyeZ9kORrovt51UmnueVmW23f0mL+qrCde6e/AuuuhgddGLvXf9laTRM3t21zx04amBb6oyO9o32aPVXFZltj5xDatxuugm31Zl9nTk9/Zmu/Van1U3Z+K0GZvVmbdz3z36vhF94hoc+LEX93EbtRXP6MDzon6lVr+iz1rC1lIFZ2zeOvt2B45l7d3Li/q5pNv9P7f1Ezr0ptr86U+6kJmGeHL8YWrAPVvW26rMrse+xuASu+snP/AaHyX9Jun53l+t1azgWY+47NfdGO6YN37pC1euqzJ72+cLl75w5arvFy6+q67vDzGZhSun8saphSsrq9EE7NRHYzEreE61bBauGItPlm2DlzKl1hqkxFqENGAp01xTDUNzqEVczR3E3HotZUqVtXGNGLWrTVqEwRthOFlgEpPdx8NFi7hpjU5vT351f19cjrzbbBF3VZm9OPQXE6/9viqzLw6uK2mvRbh8E9ovNsJl15sw8bqP2FrB0/kmtL5mcNB9OnFt9ZBbmTEz4MuvHV13sllvn317lEdcd/KbRh1hnKe0oc4x51rYhjpj5EX9cfJHY0j/xZDb9JANPSzc/j/YyBFXFq5xyKwbethaynTyJzLmp+bquodYu2ucWGkzOlhX193nauHK2vy6cnDdC/OfVdamIO9ZRXZdCqod3giDN8LgjTB4I4ypb8TaPAKvLcQy1gsbj+GT13TtBzFXb7jN163K7Mxa523H6ppbPZ5LOdajHdTNa1iJ2/oKnj7N1PSBrDr+et1n8xzbcXatwzoW6KAXcGXCG/Hs0O5HB0vs3U9kxItdDw5rPkfXmvX66dlcKWNTz7hOLraThp+m8FEdq/M8rd45NkH+wbrQU6as4Hnw0/C1csZWHOEt+znA5k/etSMf1y9Vmb2fNZgRgmkQU+7Y6rgjzm1iafOiKrM7a8GM5CPP2yy627xmCodPWLM2dqcNwuwmfOHyNRLlrJFYbxCpzszzKZhFwG0u9utGf7Yaha2l671Wh8Mta93XU3CLCE7nFOU+5tjPAR7M3jFFYwif031E2mgM8XB6NLREY4iRs23ZaAzx4sx0PGJtB0saw3JM2nhKojEszakNw0/tRGbtqEsE4+iau1MZ4sJeHAjFsazv9BxVhO1QPcHGdHiA1ToJO/TBd3G4ijV9O1OmnjRjy4B4P2qeI4n6eLBN+P4KqBAmuUza7d7D3IxJczlD+AC2G3JQ+zXanAo2x78ltniPuKnK7LUUUA1he4GL4wUz28jiPeXV7n/uG4TPFurqzXB4XVfnrjk/z63LbjOnYDJERK5dXdjzCrS/pV+7d7pYONPX2uNrj/HNdwAu7TLEpCOlJlp5fO0xQnlcdGLRt4y8qC8cXHbl4JqS7pc5epMX9f+CaBAOC1ono7UO4/V565YU2FHxFs+8nKWDzWK8nyW9s3Gtqc7MhImgztWZ8kb7aNyxxXvM2cR9GZzruW1VKG/qybPhTV0T7MQjVzvaIlJBFJUIBw0CD9Ag8MC5pBvfQSAc55L+8B0EwnHe59QzzObadwCuzg/po3NfxkCm8jnX0cfyVvLXt7I/he6dpM8+AunZAeUtvolOzrv02WHVOaeyLYCZwYP3YsyL+pWk727C6XSn5tTVQZNbzDF2V04i6qHrA9h32rjXFO55vqE1oTaCtuC3FFpKY9iZeQ3JgzUXfdgavnXSQJbWGNocvWcnB9dOcfKG21gss+TGsGOhUVg/cmG2N33APz6Iow7mMuB96XUkzlReP4X7j5EpZIVDDhTtSX0orMiLeu7Hy17yov5pCscoRfGJPPa4FlpWOXILiOJTH9SbuWM+/a9OfmEjmDd6YJEYxJFK+3yOZdyb2G37U4E27BNu86Le/f9dVWYvfAaz4+2NtNzN7D1L2OxX8HkbnDVDOOwCjzVLHNRqXLM8arbNdSCx811dTn2qTOW/kvRS/ZYdbNUMXP2l5gTq9ZFrz9GV/7oqM+ez25w1iNDXH0Rscvf0MS5O5QtmWdrSuag1rF4w9FVgS2S7Udiehr+yfD2cYLt+sdYgWBLoj5ndZoWVBmEzIIxibaqjrQyx6G12YmArQ09uENwqwrHbWnAK1nYuy+Re4EkNguwQHvPoP9roBkEhGazVlG+ekiEoJAM1JXOPahBmsAoLNDZDzHkeBUYYmyUGNwgKyWXjsXPBxnx4BzUIssPykSEWbuiHuHeDIDukgQyRgCEf5l4NgkPh09E3Q1y4DALu9c0SJxuEOT4BieiTIYI6SwPj9RkJpahMy+rUFxxtEDxqpocMkZhTH/LOBkExmaZjGYJicqHM3l4HcctIU+d+4QcbhNnTCQnqyhBXcwaB+XV96LllpOvq0B8+ahDHCg4s36EMEeMBJRjhUNdCENsS9vBoT8fAT9d5dIJOoDvrfNXeOV+Pdh8JqLu6996NgcT8qSqzj32+MJB4JT3egWb/zK0gAh2zTY7PU39GxnulADr/gm8QU/dMmvvfMCVe30dXGeuqzC53vwnqsdPGBlpz7gI79bVMneF7S+NV+zchNQibey9+sXitg2w1vNA2QL9vEL4X8A495vDEtaweO3SAtVilsI54aGcIbwt4Hb0hzlKxo51kNw6u2Uu7MzKkW4ZVoaXiU+be5HzPfX9OCA1i7TuAgXwXgU6dS1Je1M99BdB+5HHgk+0LxpZ5htpliCAPNJuqb89hQKw34KF2DeLCZxC4t/b1wruTBEOoIRCGzxINIjQrj6/9XFp4g4jwQNXffQfgvUGYo5hcmbSrqwfed/c7D+BTFNXeE0ufkX4udqQd6srFRR1nyt7OFcCxSC6WDYYwt2OgIDKl9xrCiCoN225sNs65sCEv6lUoDcLq8Psc2cHyaQC+Z03thNMgJD2xceuYcV6HldorsFvby5AahCR9NYfEj5IX9a1mfHSb+sMMrDFI0uoswKCkEccZe/53fBk6SyvQ912hNoidt1WZXR/7AtMvcDVLNKc9q8psc+wLzC0tiCLykNAbxL5Pkv4lafRtZUYbSd8kvVQAj/Z9xdYg4FhoRSU8o0HgARoEHqBB4AEaBB6gQeABGgQeoEHgARoEHqBBoG1Lg0DbTQgN4q3vAAJidSOSEb553aeytVHItRTuHAHX2hummAlCXhZfV2W29jbaeWzXGDPzydsWBTN5XZXZTddf+vi5VGV2dmZe/Lmk27kD0N6WeIcsLGsE++/dfUBD2aey1y6wkTaO66rMTtZJHv9tD6YrHtra2OeezL3ePMnvvfaUIZuo+Wzkh+I8dh/3+WkcPMlWuj+odGU/nKN673Hd5jvbdTXaoy05kE/hyYmrp5gFzW80bjLunaQ/bWxPZBb3eF1Leyp79Uptobbm2MSwVGDQG+3rUWju13TFV4YY8h6O2db/QvOtVN543tDTujk/VGM+TFO29r+S41XbS8oOO3MciTDlfRs9llGV2bV5YVd7K7rc0NQbm5u8H/B06ofI2ifQdsZYYnZos3nrsPleWX/TbdQYS28Mkp0+Exfvk9M3fuSn4GR//1KMfH+cFtqzfBKHdIenkB3aBjSKyR10fcz+5h97A1JrDNLJW8dNVWavZwxn/gbRttc4Ro0JLMHe+9D7vFIXkvtEzsk8eb1RdwZYXMebbSd6d28k/VGV2Xq2gBJDghjJDKB+0PTR9lEj/SmwtFvUWk01sp4aT4pIEEfMOTaZ4vPVMXlRf9c8O4kN3j8wJck3SjMl7LMCOHSMJNEIZJ/JrZo9MTvXSaQgmQZp1p18VwCJ4JjUk0QgyeGYpBLHIhuj52UlUyXbJxHChPQJei8nikn0CSKCO84Yj2aDmFmYKzW7Zj9XRDtnGxs1q1v+UvPve3B6uun0je38xFNmH6e2LaoEMccUb8Cx91WZffEdRF/BJwjfywcBl0Lvcwo2uJlXCgI+BTtrNMgE4Wm7D8CrEKuJ4ALikQIpCy1JBBUMyQGQJF2GMjU8iASx0CEuYIogNj7wniBmnHMPRMf3I4fv9f9/S3riMwYgdD6ThLcXpr8BGOSp4y0sD/Jy5hrJARjsb9NXN6vZEwTJARjth1nQNpvZHjHm2PIdSMRsK0fn2sb4QkybBmyaZRjUeYJgjgPgjPNNj12fjLESyQFwKc6TUkgOwGycJQknCYLkAMzOSZII8jRGAKNY77h0MQ+C5AD4sTJ7tFpjNUEwCQrw7srs3WqFtUcMkgMQFCvHf1upIEgOQHCsPOpPThB5UdPnAATIxo17UoIwC0cupgYBwI2pSWJ0HwSLr4BojB7+nFJBkByAOKzMKfaDjUoQdEoC0fk+5psGJwhzcjaAyIy5sY+pIN6N+B4AARg603JQguDRAoje1ZAv7p0gbM/xBuDHkBv9kAriangoAELUty+xV4Lg0QJYnF59iScTxNjxUwBhMyfbHXVyJiXVw1EbSS+mnHhklubSv3PY5O3dTd/ZlZ1wFunoiV1HE4RZa/HBdkSRc3oEmnk2THUoeVuV2VOXL2AWF164fI3YHDv781SCoHpozHZQSVtC7/+Lqszu5nxB1hI90Pn+dyaIxO9kO14Sw74FJwovB9K2kSgaXVXEsQSx1EbZi88j1w9ZWEOe5VSoIeirOFxFHBzFmPuA0MDchJYcJKkqs22IcY3wLLTkIEmmUnTa/xG420N/eLDBJVw9fKrK7KPvIE6J9ecTS4KL9f2d6tDP51EFYQ69SdE6huQgxfNB2+P0DEnLkqwkDm0feegRI8kTsUIse4+JLEmsbeywPBfTcXrtOw4PLvb/wMXBOTGKKjm0bHwH0EdsyVe675NITl7UD0Yuz/f+8uOs0QSiKrO17xhGiuGD53UYc6K17wA8eLCIa7+CYNZkRCIp2z/5DmCCP3wH4BuPGGneJeY06wxJy2KufkZrP0mcH/pDAEm7f5I4P/SHiVn5DmDhVr4DmOB33wH4xiNGxCLZBjDmG0+ye6Hs5kORIBTNB+2QK98B9GHWkUQlL+rnvmPw7INkEgT9D3F80Nryoh51EIonMS4yO7g2ISEr6VcFEXMZaEVM8+/NNoBRlb95UUfzgeuzFVsqeMRoiSFJmGfDmKqHned5UQc/jd+sR4jukciVMymOD8acQl3nsJAtAJ1vKzcWn4NHLkkQ3YLYTWpngT8j77tJ7eRFfSHp0UpG6ObMlKzBl34ezb5fYpt5dl9sj7rvam2Bideqs4WUrXOYtaIwHWUpPQs/m2ttCRVDf2em42jlO5DIONl5aunVwgDWk8XC9vScDQnCjo2k10MeRTgwZ5BrSe+H9FmwCa0dZzyDAejCPAgAnUgQADqRIAB0IkEA6ESCANCJBAGg07ni3lQUgEPnSnTnXgCnnUv6y3cQAMJ0Ls6FANCB/SAAdFkzigGgy1//8B2Bb+0NS8w+AbdKax8GPPS+KrMvu98kvtp5neojxmXfE71Zlr1o66rMep+QntrnpCqzs/bdM6VMOWnjVJJGlCbtCJYX9WdJ7yzGE7qnVZltD+4HmOB2Z1a2k0uwEYXoTs3mPZspF0l0r9bXVZndtP/g5IahqZVVhtUt5cwxbp+VToXm2lZNX8G1rQsmvE/l0bY+aEfhRJOFNPBZdShzt/pdkZ2W5dCdpD9sJoB9iT8m9r4Bjt5yPMHHkH0PervnYDZevZL0m+KrRtZqZu2u+3YQ22Kqgx+SLuZ83cCMaq9WziRIrIOzS++REbiXcLXbNvlMF+uHliRaus12pgP6SzBJbKoye2bzgs5PNUrgUSSYI+TwWAJJ4q3LvppZjz1b2tCR72Pj0M/CkoTTDvN9vs9F/KhIj/0jOcQlL+qfirOTcqvmEdZLlRpUI48kYQR7fD2Oi6V9yWNC2BdUgtgX4CPJl6rM3vsOAuMFeEbnrI8MQwWdIA7xOKTKSMWCeOyXeDSdOWTRJYh9cyzRpr9hmWY4Td3JKfBzWmTDtzhzLujyD9OZdTK3Fi41+8zaOSwyQXTJi/qdmkVTfTC/ISEDHjmsrBaNRVIJoste4mCUIlF77WCtZhLSxltAASBBzMg8+lypWWy15fHlNDN1/42kby5nDOIwEoQjJhn8riMbyND5edqR0n8j6ZuaoWceBR2hgVpiytPfNaxjlMeZI0ZMbHK+j0RqSBAjWZyVx/yKDpbmKkQ/1OgTCaKngSMgg/Co8Vhe1F/V9NfYtsjhSFdomB3M+PhXuZ1Is0MVsWemmY53ahLGeobXihIJosVllXAKVcQvHqfT8ziyJ/lGGdBW9VQRRiD7N1g5CiF2SSYIh8+3k1BFBPuzuVEzaSq54dRkGmRAlcIxyVcRgVQPxyRVWSw6QUS4gW7S8yIi2dClbfF9FotLELGfgZDyY0YE1UOXrZoFXGvfgdi2mMYY6LPrGJO2Lje7cEm/RgFe7v3ehrX5dSPpP+bXzZQPSITVXpebqsxe+w7ClqgTxBybxfhwqIowH/yVmg/8at6IrFjryMlaEVcPx0R/mFKUCSLCZ1Uct9XCkvyeaDs2o0oQHPGHyG3UHIcXzXBp8AliqY8RSF4Ujx/nvgM4xkx9/imSA5bnh9k0N2hBJwh5WhcBzOS5WRQYrGAThDn0F1i6oKuIIBOEebTgsQJJCPlRI8gEIR4tkJZgHzWCSxA8WiBRQVYRQSUIM1uQRwskyczzCUpQCUJhneQNzG1lTh8PRjAJIsTsCXgQ1CN2EAnCZM2V7ziAEJi1RkEIIkEosKwJeBbMQkTvCSKkbAmEIpTRPO8JQgFlSyAgT1qb/3jjNUHkRf3T5+sDgfPece8tQZiOyQtfrw/EwGyl6I3PCiKIZywgcFc+X9xLgjAblALoweejuK8KYgm7FwNzuTA7q81u9gTh+5kKiJSXKsJHBXHl4TWB6Pl4NJ81QTCsCUwye/U9W4JgWBOYzhxCPZs5KwiqB2C6WU+onyVBmB7YoNa5A7Gac2uEuSoIqgfAntVcL+Q8QYSw4ARYmrk6/OeoILwvOAEW6GKOF3GaIKgeAHfmqCJcVxBUD4A7F65fwFmCoHoA3HNdRbisIKgeAPcuXF7cSYKgegDm47KKcFVBUD0A87lwdWHrCcLXunUgZa6qCBcVBLMmgflduLio1QQR2rmCQEryov5u+5q2KwiqB8CfV7YvaDtBUEEAHtk+qc5aguB0biAIVk+qs1lBrCxeC8BIeVFbe9SwkiA4gBcIirXOSlsVBAfwAgGxNaI4OUHkRf3cRiAArLq1cREbFYSVQABYdWHjIj4P7wXgkI0t8iclCBcztwBYM3mL/KkVhPWZWwDsmbp4cnSCsDnWCsCZSX2EUyoIHi+A8E0a7qSTEli4KRMZRyWIvKhnP2UYwGijJzKOrSCuxr4ggPmNnVk5OEGwpRwQpVGrrcdUEHROAvEZtSRiTIJg7QUQoTHrpgYlCBZmAVEbXP0PrSDYNQqI18XQbxiaINhzEojY0BnQvRMEU6uBRRg0h2lIBcHkKCB+g54ChiQIHi+ABRjyNNArQTB6ASxK741k+lYQTI4CluOi7xf2TRC9LwggfH2XTJxMEKy9ABap16BDnwpi8saXAIKz6vNFfRIE8x+ARJ2d+oK8qP83RyAL8L4qsy+nvsiMCH0QiXeIO0mfqjK7OfWFZgjvg1hU2Menqsw+HvuCowkiL+p34hHjmLdVmV1PuYA5FX1lJZpl2Uq6rMrsbuwFTDL+IebwdKrK7GgOOJUg/hZv7iGXVZmtbV6QRHFvK+lZVWZbWxc0uyn9FG35kakJgseLh26qMnvt6uKmIf/t6voReN3nMWKsvKhXYkXyvhfHqrTOBEFjfeToG2mTObEsqT6KU3cym6iMHzh60zs2ijF6J9ylqcrsbK7kYF7vtaS3c72eZ3dzJgdJqsrsqZqOT5y4ER1LEJPP9VuCuRtv63WvJb3w8dozuqvKzMu/0bwuSeIEDs45wldyaL3+naRLnzE4tPGVHHZIEg3TN3PQwQQxdg/9hXnqOwBJMqMln3zHYVtVZs98xyDdJwlrIyaR6uxO6KogUu9/eG1zmG0qM5klmHim8l2Z7TN9Eilbdf1FV4JIuf9h43KobawFNWJnw8QTLfVRbhL6IPaEUvp2CPXD1dc2xOQr3T/KbTyH4U3Xqm0SxENBP+uH+uEaIOTkG/rNwbXfD/3howSRF/WV81ACdWrhSiBibcSbkPp1jlj7DsCTg90KhyqIg5kkASdXYoagKrON7xhGimJOR1Vm9EW0HEoQSS6Trcrsve8YBohulmUk1cNOTLE6RR9EI6oGMXWJuQexJbTY4rXi0IQpEkQjxgYRTVKLLaEtoDN4rEfdCw8ShNkgJjmRNoiYHokQh0cLt/YriDczBYKJIrorx5h8pUg6rV3bTxApdlAmv1jHsT98BzDSN98BhIA+COlP3wEsme2t+eYy5/4fIdk/ZpMEEffEmI3vALA4D/oh7hPEsTXhSxbrHc7Y+A4Ai/OgH7JdQazmjQMW/OU7ACzORfs37QTBCAaAB9oJ4sJXEADCRCclgAfae0OQIOL20ncAWKT7kYzkE0TXTjqRWPkOAIv02+5/zqV0hziNle8AgMCsdv+zqyB+O/x1SWD0xqH9mXmxSPymeW+XIFY+g/Bs5TuAhYs1Aae6s9oDuwQRZZZPWV7UH33H0FOsWwgkdXhyl+Q7KaVoy+DUDzfCDEgQje++A1iyvKijuhununFS264PhgTRuPAdwBARNuCvvgMY6LPvAALwXCJB3IvsPJDYGnA0h0FzcPW9f0rSeaTP3y5EcZeLdfgtL+ofvmPo6dZ3AIG4ryDImEYkVUQsH7R9K98B9HThO4BArKQmQay8hhGWoKuI2Dr79uVF/dN3DMfkRf237xhCcy4W/DwQeCkc+2jLRahrX8yjG9X0HjopH1uF2C8T+t13gFD/HSHfGLzhEeOwoDqqTN/IhecwrAmtlA8tnpBQQXTIi/p/vmOQ7pejB903MsKTvKiD+DflRf1dPFp0IkEc4fvOYsbkQy3Jp7ryvZ7EJKmoO35dI0Ec98RXkjDJYeml7wdflYR53Ssfrx2Ts1BK6dBVZXY212uZ4czYRyyGuKvK7MVcL5YX9a1YwdzHCxLEMK9dnwRuhllXLl8jYE+rMtu6fAHa+yCXJIjhtlWZPbV9UTMOz1CbdF2V2VvbF+WRYhQSxAQbSS+m3vFIDJ2+VGX2fupFTEcoe2eM84kEYcegxmyGLj+LHvQ+tpLeDnm0M304X8Xw5VQkCEfu1DTs3dmZL9V0itFg7VireY//K+n/1Ly3K4/xLBUJAkCnNfMgAHQiQQDoRIIA0IkEAaATCQJAJxIEgE4kCACdSBAAOpEgAHQiQQDoRIIA0IkEAaATCQJAlzsSBIAu/yVBAOhEggDQiQQBoAsbxgDoRoIA0GVDggBwUFVmJAgA3UgQADqRIAB0OldzCAkAPHKu5gSolG1EksRjk88FXYJzSf/2HYRH76sye1aV2WVVZmeSvvgOCF5tJD2tyuysKrMvkqyf4h6bs4RPl37adTK3Ofz1+8zxwJ/rqszedv1lXtR/K8FzVasyO/uH0nvE2FZldvTOYE6SPsuL+omkW0kXcwSG2b3uc2p4VWZP86L+KOmD+5CCsZakM0lK6ADfk8mhS17U7yR9thwP5ndTldnrMd+YF/WVpK92wwnWTVVmr3cJ4omkvz0HNKdPVZl9HPvNeVF/l/TKXjhwbKumWliP+eYEPx/3SfSs/ad5Uf9UWuX05dhGI0l5UV+o6b+5sBQP7Hpbldn1lAsk+Jl4UZXZ3e43Z/t/m2gH3bOqzDZTLpAX9XM179uFjYAw2nszAjFJXtQ/JK2mhxONg4/fjxLETkL9Em2dIxtDmMris3gMmcNWTaVwsrOxj7yov0q6snGtiHQm1c4EIUkJ9txKTYN7ZiNR7NDBad21mn6kja0LJpoYZOb/dDr6lzuJVhOShUePfabD64Okdzavu3BrNQlhbfvCCXc49+qo75UgpGSriZ1e4+Vjmff2dyU4GafDtaQ/2p1ltiXY+XjvVNXQ1vsLdxKuJiTpS1Vmzufomz6MK6WRNG7UJIO16xcy7+tP168TsMHD+4MThMQztZo5+y9s9lP0YabFryT9Jun5nK9twY2kP6cOO46RePUrTZggOCpB7KRcprVYGVabyvRtPFeTQF6q+blczPTya0l/qengvZujGjiFOSr3Js31mZQgpPvx/9up14ndkOc6uJXqiMSedVVml1MvYq1R50X9Wen2zFsf7cA0ifeVWZnPI1lMEDspLo2leghPov0Ok6eW73PSsBPrLaZ6CFRCVcToFaqnOL3zJbwD298AABWKSURBVLA8dnTvMNyj/U03S2m81E4jHi3Ct+AqYpbKdZZt76sye2s+TOs5Xm8ma98BoJdnvgOw7NLsmbmZ48W83AGXMH+C6iEeC+k4t94B2YeXg3OqMnumZsfgWPfDZEv0iETeT/TJVAzXPl7c+13QzAD8qYgyPNVDfCJctTlpW0RbgmnoESUKhjUjFUmHZRCJYSeYBNEWcB/FXVVmL3wHgXECPwPGSx/DKUEmiJ3Q9gXk0SJ+AXZYTlpM5VoUDT6QdR5ON43BfAJ41Niq2S5g4zmOk6JIEDseZ8YxY3JBPK7TsLLCck5RJYiduY/E49FieWauIoLYM2SM6Bv+DI8f0f5wcZzjJBHNY8Qx0SeIHbOC9FZ2O6B4tFgwR48as+xbOpfFJIg2W3tm8mixfJZGNe7UjEbEOjO40+I/ABNm0DFqkYgJjxqLbyOLTxA75hHku/rtBr0x60WQgIHn0SbVJ5VMgmg7lSx4tEhPXtS36r55JJUU2pL/IJhk8VW/Zmxa2/ATcdl71Eg2KbQlnyCwDOb4hedq5sa8NP9/rPMxyLUPiM+JtWN3ag7a+reaTabuKECwFBQQCJqZNLtSUxD0KQyGCGplNeJieYeKjZpi499qZuSvLVwTcIoCAl61jiP+l/l17oXYFBEYzNPJP1v9OgU3iBNwkTYKCDjVKhBeKqCdf/ZcV2X21ncQiEPgxwau1RQY9GLAOQoITGK6cV/pV4Fw4TOeCSgicFLgxcMpW0k3+lVgbPyGg9hRQOCkvSLhlcLa79Umigh0CnxD9Kl2wyN/iuICPVFA4J5ZyfBGTZFw4Tcabygi8Ij5bNz6jsOTjUzPxdJ3PsEwFBAJMjuj/KZl9yZMQRGBe5EPW7h2o6bX4oblqemhgFgwCoVJKCJA8TDejaQ/2Wtl2SggFsAkuSs1ww8XPmNZGIqIhFE8WLeVdC3pW1Vmd55jgQUUEJFp9SpceQ4lFewTkSDLm0ThuLWkb2IYJDoUEIFqrXz4Xf1O+IE7i9j22kwEdH1DXMRWzSe2p4Z7G0l/qCkqNn5DQRcKiABQLETh0tbGPKZr/ML8dmV+/Wfrz+a40cfmTk0XuNTsYyA1N5mNJNncNOnEyWrwZ6Omp+KaoiIMFBAe5EV9pWa+wspvJBjoWVVmm9aT/ErS/+nXDZ+bTvi2+nXA1X/0qwi5q8psmxf1dzXFPOKwUdNTcb2Enq/YUEA4ZjafeSPmLADAHNaS/mDPCvcoICwyQxHvxGoIAAjFbvXHHwx92EUBMVFe1J/VFA0AgDisJb1nOek0FBAjmYlwt2KyGwDEimXaE1BAjJAX9TtJn33HAQCY7K4qsxe+g4gRBcRAeVH/EKsnAGBpXjCkMQwFRE8MWQDA4jGkMQAFRA9m++jvvuMAADjHkEZPFBAn5EX9VezhAAAp2aoZ0tj4DiRkFBAdzJ4Ot2I/BwBI1fuqzL74DiJUFBAHmK2Kb33HAQDw7qYqs9e+gwgRBcQelmgCAPZs1AxpcN5GCwVEC/MdAABHsNSzhQLCyIv6p5jvAAA47m1VZte+gwhB8gUE+zsAAAa6rsrsre8gfEu6gDBHbf/wHQcAIDrJ7xeRbAHBZEkAwERbSc9SnVyZZAHBZEkAgEVJTq489x3A3MxhWFe+4wAALMZtXtRXvoOYWzI9EOwsCQBwLKnDuJIoIFhpAQCYSTI7Vy6+gGBbagDAzNZVmV36DsK1RRcQLNMEAHiyqcrsme8gXFpsAWEmtHz1HQcAIFmLXua5yFUYeVF/FMUDAMCvJ5L+NvPwFmdxBURe1J8lffAdBwAAxk8zpL4oixrCYIMoAEDALqsyW/sOwpbF9EBQPAAAAvcjL+pXvoOwZRE9EGZ3yZXvOAAA6GERR4JHX0BQPAAAIhR9ERF1AUHxAACIWNRFRLQFBMUDAGABoi0ioiwgKB4AAAsSZRERXQFB8QAAWKDoioioCgiKBwDAgkVVRESzD4TZ52HlOw4AABz5as5xikIUPRBsEgUASEgUO1YG3wNhzra48h0HAAAz+RHD2RlB90CYUzU5GAsAkKJnVZltfAfRJdgCwowDcSQ3ACBlwRYRQRYQ5rCR777jAADAs62aImLrO5B9wc2ByIv6uSgeAACQpCeSbn0HcUhQPRB5UT+R9LfvOAAACMy6KrNL30G0hdYD8dN3AAAABGhltjQIRjAFRF7Ut2q6agAAwGNXeVG/8x3EThAFhKmqnvuOAwCAwH02Cw288z4HwlRTn33HAQBARLwv7/TaA2GqKIoHAACG8b4yw1sPRF7UF2LSJAAAY3ldmeGzB+KHx9cGACB2K3NelBdeCoi8qL9LuvDx2gAALMg7X0eAzz6EwaRJAACsm31S5aw9EGabaooHAADsmn1awNxDGMx7AADAvou5d6qcrYAw8x7YaRIAADeu5pwPMcscCOY9AAAwm1nmQzjvgWDeAwAAs5plusAcQxjfZ3gNAADQuJhjfwinBYSZ0HHh8jUAAMAj7/KiXrl8AWcFhDnn4srV9QEAwFFORwBc9kDMupwEAAA88MTl0k4nBYQJmCWbAAD4dWVGBKyzXkAwdAEAQFCc9EK46IFg6AIAgHA8cbEqw2oBYQJk6AIAgLC8M/syWWOtgDCBvbN1PQAAYJXVEQKbPRAMXQAAEK7n5mgJK6ychWEO76CAAAAgfE+rMttOvYitHgiKBwAA4mBlQuXkHggzcZK5D3BlLWkj6T/m182Jr78w//3T/LpyEhVw2sb895f5/brH96zMry/1qy0DLryoyuxuygX+MeWb86K+EMUDptlKupH0Z1VmN3O8oNmr5DdJr8SqIUxzJ+mbpBtLxyevj/2lybmvJL2RZHVGPZLzVdKLKReY1AORF/V3NY0Z6Gst6VNVZmvPcTxgDp15IzZBQ7etpD8kfbExfmxLXtRP1DzI/S4KYgzztiqz67HfPLqAMAl3ljPHEbWtmoLhi+9AhjDtm9NkcSPpvaXehVmYXorP4uEOp22qMns29punFBC3ogsNh23VJN1r34HYQDGRnBs1T2bB9DKMZXonvopiAt3ej33AG1VAmDFkp8eEIkqLSbxd8qL+KOmD7zhg3VbS5dRJZSEzm/39EMMceGhbldnTMd84toCg9wFtk8bRYkQyXow7NYXDYovefaZX4ofI4fjlU1VmH4d+0+ACgt4HtCRXOOyjkIhWcoXDPgoJtFVlNrgeGFNA0PuA66rM3voOIiTsxhqNxQ9VDGUKiZ+iCE7d4F6IQQUEvQ/J26rZfGTjO5BQ5UX9Q2xeFapR3bSpoAhO3uC5EEMLCHof0vWlKrP3voOIAUucg7OV9Czl4Yq+TG/ErVhxlKpBKzJ6FxAkxaRdhrbxU+hIxMG4qcrste8gYsMRBckatC/EkMO0WLqWnt2T29p3ILGpymxrPohr37Ek7BPFwzimt5F5Tum5MENZvfQqIMxM89XIgBCnXfGw8R1IzKoyu5R07TuOBL1lvsM0ZoXVpe84MLvf+35h3x6INyMDQZwYM7bIrFi59h1HQhazC6pvpveRXpy0PDdTFk7qW0AwFpaWFxQPdpkiYu07jgR8ie3cldCZU3IZzkhLr16IkwVEXtQUD2l5y7CFG2Y4g8LMnTtWCrlhenSuPYeB+bwyE8GP6tMDwfBFOq7p+nWOJzl3GK93yPSiUQCn42TnwdECwoyDsO9DOnh6c8x0B9/4jmOB3jPsNgsK4HSc7Dw41QNB70M6PpGAZ0OhZteWeQ/zMAUw24Cn4eLUZMpTBcSVtVAQNJa8zcfMMaEXwp4/fAeQmE++A8BsjnYidBYQQzaTQPSufQeQIG569tD7MCPTC4E0XB37y2M9EAxfpOOb7wBSw+6e1qwZevOCIiIR5hDNg44VECv7oSBE3My8WfsOYAH+8h1Aov7tOwDMpnNPiIMFBMMXSeHpzR8mo0239h1Aota+A8BsVl1/0dUDwfBFOriJ+fNf3wEAwCldwxhdBcTKXSgAACAiBzsVHhUQxyZMAACA5PTugfjNcSAAGi99BwAAfRzaVOpQAUEPRFpWvgNI2MnDanDSyncAiVr5DgCzW+3/wYMCwlQYJLXE9D37HfaYk+44Z2a6f/kOIFH0nqXn0ejEfg/Eap44EJiV7wASdOU7gIWgx3Rmpvhd+Y4Ds3u+f8T3fgFBVZmmzo1C4AxLpS1h4vfsTh7zjMVatX9DDwQk6Qmbh83HDBkxfGHPB98BJIYHjnQ96GS4LyAYB0/eZ98BJIT32q7n9ELMIy/qd2KeXMpW7d+cd/0FkvMkL2pubI6Znh56H+z76juApcuL+kIUv6l7kLvaBQSzmfEuL2pubo6YBMyNzo0neVHz3rr13XcA8K89WtEuIC5mjwQh+rE/0xbW/PAdwMJdMZfHDdM7ycMFpNZoRbuAoHFAasY3b30HsTR5Uf8QRfocvjKfyy5TlLHyAjv3EynPJSZQ4pGLvKh/+g5iKUzxsPIdR0J+kNPsMMUDQ0Nou+9s2PVArPzEgYBd5EX9k+GMaSgevKGImMisuKB4wL77e0LXcd6A1HS5/zST/zBAXtRPTC/OyncsCfuRF/VH30HEyMx5YMUFDtoV57sCgh0o0eWJmiKCMdCezEqWv8WchxB8ML1A6KFV+PJ5xzEriSEM9Pc5L+pbhjSOM0sJmYQallVe1P9jifJxZjMuCl/0xhAGhngu6W96Ix7Li/p5XtT/E4dkhew2L2qKuz2m1+FW7POA/l5K0pkZy6CLD0NtJV1WZXbnOxCfTI/MD7EMOjbXVZm99R2Eb6bH7Mp3HIjOuiqzSwoITJVkIUHhsBhfqjJ77zuIuVE4YKqqzM7OzCxlTrODDW+rMrv2HYRLZhz9uxgnXpprSe+rMtv6DsQVU/R+FoUDLKCAgCt3kl5XZbbxHYgtfE6SsVVTCN/4DsQW08v8XZyiCbsuz/Ki/i6Jo3Dhyo2aJ7uN70CGMpNFP4jEm6qNmmJi7TmOwUzRwPkVcOnyjJ3yMKONpE+hDnO0jiumoMa+raQ/1MyZCG6YwwxPvJP0uyh4MY/3FBDwaaumh+KPuSdhmoT7Sk3C5SkNY9xI+uZjuMPs2fCbmM8Afz6dmV3HLnxHArRsJa0l/dv8uhkzBGK6cS/UrFl+LgoFzGOtZh7QX2ra7uDi2EzWvVDTZl+KhzyE59OZ2fwGAACgr0/sRAkAAIZ6SQEBAAAGo4AAAACDUUAAAIDBKCAAAMBgFBAAAGAwCggAADAYBQQAABiMAgIAAAxGAQEAAAajgAAAAINRQAAAgMEoIAAAwGAUEAAAYKi/ztWcXQ8AANAbPRAAAGAwCggAADDU3bmkv3xHAQAAorKlBwIAAAx2LmnjOwgAABCPqszWFBAAAGCwc0lb30EAAIBorCXpvCqzO8+BAACAyOwmUW58BgEAAKLxl0QBAQAARtgVEOwFka4bSU+rMjuryuxM0gtJ135DAhCQraRPkp7t5YmN16jg01qSziQpL+p3kj77jAaz2kq67DP/JS/qJ5KuJP0u6cJtWAACsJb0rSqz6z5fnBf1Z0nvXAaEsJgi8r6AWEn64TMgzOJTVWYfp14kL+oLSR8kvZL0ZOr1AHizkfRN0peqzCatyDN54buk59PDQsgeFBCSlBf1//yFA4duJL2dmhxOMUXoGzW9FQDCs1UzPPlHVWYbly9k8sFX0Wu5ROuqzC6lhwXEKzU/cJ4ol+da0nvXRcS+vKifqxn6oKcCmNdGTc/CtetiYZ/53H+WtJrzdTGLB8PfZ4e+Ii/qj2q6qLE8GzVDGdc+Xrw1p+KN6OoEbLiR9Kevz7R0f8/4XTwoLNX7qsy+7P/hwQJixyT7z6JbesnWahqH1w3FzFPLGzW9FRc+YwECdaemV+Fm7l6FfWaI4oPoZViyL2oeNjt7ro8WEG1mgsxX0WCW7lpNo9l4jkPSfWGxEj0WSMeNpD/VFApBHDXQmjh95TcSOLaW9Lpvu+tdQLSZpP5VJPSl20r6QxZmaNtmesdWkn4zv154DAcY6k6/lksGd5wABUNS7tQUDZuh3ziqgGijmEjOtQLqoehiJgW/VFNc0Dbhw1pNT8I6xCKhjYIhOXdqVudNapeTC4g2lu4k6VrNU9Tacxy9tXovXqopLlY+40GUtmqS8F9qCoS133CGYQ5DkqwUDW1WC4g2eiaStVGz7W0w47djmCey5+a/XaHBDPM0bNQk23+r6UW4i7wtP1GzU+Qb8XCXGutFQ5uzAqKNdcHJu1Gzec3adyC2meS8KzT+2fp/io2wbMx/f+3+f4ntUZLyor5SUyys/EYCT9ZqioaN6xeapYBoM092n9Us10O6rhXZ0Ict5jPQ/u9fagqO3e/R7U6/hg/+2/59zL0EY5m5Prvlz0jXLDsO75u9gGgzT28fxEEsaNyomaAZ9ISzkLSKkZ393o//U/cw4pMjf9fXuuPPt2qGANo2ap3gmGLxOAXFAvZ8kucVcl4LiH2m6+2z6P5N1f0e6wAeMsXiT99xwJutmk3/rn0HshNUAdHGvInkXFdl9tZ3EEDITK/tT/GQlYq1AtgpuEuwBURbaxYx53MsE8UD0BNFxOJ5H5roK4oCYh/7TSzKp6rMPvoOAohNXtQ/RQ5cgjs1vQxr34EMFWUB0dbqneAkuPgcPOENQD95Ud+KvXZiE+wRAUNFX0DsY+5ENF5XZXbjOwggdnlR/xD5LnRrzbQ3w5wWV0DsMys7PoiuvpC8CHVSEBCjvKg/i+XwIdmo6WFd9EPS4guIfXlRfxTDHb5sJT2LvdsOCFFe1O/U9L5ifsEtsZxDcgVEG/MnZrWpyuyZ7yCAJTMTzH/4jiMBi5nHMEXSBcQ+Cgpnbqoye+07CCAFZsOpW5HDbKJgOIAC4ghOsbOClRaAByzznGSjpmC4pmDoRgExEJMyB7mMcW0zsBR5UX+VdOU7jgjcqTkx+Np3IDGhgJjIjDm+ER/SNiZLAoEwDz1ffccRmGs1BQOrwSaggLDMDHtcqZlHceE1GD+Y7wAEJvF5ERsxHOEEBcQMzOZWv2v5vRTMdwAClsDOlVtJN6J3YRYUEJ7kRf1KTVGx8hyKDVs1m0NtfAcC4DizF85SDia8kfRt6Rs2hYoCIiBmrPKN4ioq1lWZXfoOAkB/plf01nccA63VFAvXnuOAQQERONNT8UbSK9+xHMCQBRCxgIc06FmIAAVEhFpzKl7Jz6QoVlkAC+F5C+ytmhUR35izEB8KiIUwqz92vRUrhy91XZXZW4fXBzAzkz9+yu0DyVrSNzUrtXj4WAAKiIUzy7d2hcXUrkpO0QQWzNLGU3f6VShspsaEcFFAJGpgYcFESSARAyZYUigkjgICD7SGQn5TMxTymu2ogfTkRf1dTQ5YS/pTDD1gz/8D2NpSMWTFovMAAAAASUVORK5CYII=;" vertex="1" parent="1">
          <mxGeometry x="640" y="150" width="92.39" height="70" as="geometry" />
        </mxCell>
        <mxCell id="1JnCwZFcJpIxbQgqv27d-2" value="discordサーバー" style="text;html=1;align=center;verticalAlign=middle;whiteSpace=wrap;rounded=0;" vertex="1" parent="1">
          <mxGeometry x="635.7" y="228.5" width="101" height="30" as="geometry" />
        </mxCell>
      </root>
    </mxGraphModel>
  </diagram>
</mxfile>
